<?xml version="1.0" standalone="no"?>
<!DOCTYPE svg PUBLIC "-//W3C//DTD SVG 20010904//EN"
 "http://www.w3.org/TR/2001/REC-SVG-20010904/DTD/svg10.dtd">
<svg version="1.0" xmlns="http://www.w3.org/2000/svg"
 width="32" height="32" viewBox="0 0 300.000000 200.000000"
 preserveAspectRatio="xMidYMid meet">
<!-- Background for better visibility -->
<rect width="100%" height="100%" fill="#f56a6a"/>
<metadata>
Created by potrace 1.10, written by Peter Selinger 2001-2011
</metadata>
<g transform="translate(0.000000,200.000000) scale(0.100000,-0.100000)"
fill="#ffffff" stroke="#ffffff" stroke-width="8">
<path d="M540 1983 c1417 -7 2450 -7 2450 0 0 4 -672 6 -1492 5 -821 -2 -1252
-4 -958 -5z"/>
<path d="M965 1525 c-14 -13 -25 -32 -25 -42 0 -10 45 -193 100 -408 93 -359
103 -392 131 -418 16 -15 37 -27 45 -27 12 0 15 -6 10 -23 -4 -12 -9 -42 -12
-67 -4 -44 -4 -44 36 39 22 46 40 85 40 87 0 1 -23 4 -52 6 l-52 3 -103 395
c-57 217 -104 404 -106 415 -2 18 5 20 79 23 57 2 84 -1 91 -10 6 -7 41 -158
79 -335 37 -177 70 -321 72 -319 2 2 32 143 68 313 35 169 69 318 74 331 9 20
16 22 89 22 44 0 82 -4 85 -9 3 -5 -27 -134 -67 -287 l-74 -279 -102 -179
c-108 -189 -141 -251 -141 -262 0 -19 57 50 108 131 l57 90 6 -109 c5 -103 7
-110 33 -132 23 -20 38 -24 96 -24 64 0 70 2 94 31 25 29 26 36 26 150 0 113
1 119 20 119 16 0 33 -27 84 -133 37 -78 73 -141 87 -150 17 -12 45 -17 97
-17 65 0 76 3 98 26 32 31 30 42 -42 193 -30 63 -54 119 -54 126 0 6 13 24 30
40 49 47 65 104 65 235 0 100 -3 121 -23 163 -28 55 -80 101 -137 120 -43 15
-48 30 -30 105 13 57 -9 34 -46 -47 l-36 -79 49 -5 c71 -9 128 -44 158 -97 32
-59 41 -208 16 -293 -15 -51 -59 -106 -96 -119 -7 -2 16 -59 64 -157 42 -84
73 -157 70 -162 -3 -5 -41 -9 -84 -9 -94 0 -80 -14 -166 177 l-59 132 -52 1
-52 0 -3 -152 -3 -153 -74 -3 c-53 -2 -77 1 -82 10 -5 7 -9 81 -9 163 l0 151
85 149 85 149 0 -93 0 -93 96 4 c120 4 124 8 124 128 0 111 -8 120 -108 120
-40 0 -72 2 -72 5 0 2 15 28 34 57 18 29 59 102 91 162 44 83 53 106 38 97
-22 -11 -96 -122 -158 -234 -30 -54 -34 -70 -25 -86 15 -29 42 -41 92 -41 24
0 49 -5 56 -12 7 -7 12 -39 12 -75 0 -71 -11 -83 -77 -83 -49 0 -63 14 -63 62
0 22 -7 53 -16 69 -13 25 -20 30 -40 25 -16 -4 -24 -2 -24 7 0 7 18 82 40 167
48 185 49 202 14 229 -21 17 -41 21 -96 21 -79 0 -102 -9 -122 -48 -7 -15 -32
-117 -56 -227 -42 -199 -53 -234 -63 -199 -10 33 -44 185 -68 304 -31 154 -46
170 -154 170 -67 0 -79 -3 -100 -25z"/>
</g>
</svg>
